<?xml version="1.0" encoding="utf-8"?>
<!-- Generator: Adobe Illustrator 16.0.0, SVG Export Plug-In . SVG Version: 6.00 Build 0)  -->
<!DOCTYPE svg PUBLIC "-//W3C//DTD SVG 1.1 Basic//EN" "http://www.w3.org/Graphics/SVG/1.1/DTD/svg11-basic.dtd">
<svg version="1.1" baseProfile="basic" id="Layer_1"
	 xmlns="http://www.w3.org/2000/svg" xmlns:xlink="http://www.w3.org/1999/xlink" x="0px" y="0px" width="626px" height="440.013px"
	 viewBox="0 0 626 440.013" xml:space="preserve">
<path fill-rule="evenodd" clip-rule="evenodd" fill="#f4c842" d="M375,440.013H125L0,220.006L125,0l501,0.006L375,440.013z
	 M304.154,94.513h-58.929c-40.47,0-57.864,19.119-57.864,58.079v19.84c0,25.973,8.165,42.927,25.56,51.224
	c-19.525,8.297-25.915,27.416-25.915,53.75v38.959c0,12.265-0.355,21.283-4.26,30.663h39.76c2.13-6.494,3.55-10.461,3.55-31.023
	v-39.681c0-23.448,7.81-32.105,25.56-32.105h13.49v102.81h39.049V94.513z M226.41,181.45v-24.891
	c0-18.037,6.035-25.973,19.88-25.973h18.815v77.558h-15.265C235.285,208.144,226.41,201.651,226.41,181.45z"/>
</svg>
