<svg style="position: absolute; width: 0; height: 0; overflow: hidden;" version="1.1" xmlns="http://www.w3.org/2000/svg" xmlns:xlink="http://www.w3.org/1999/xlink">
    <defs>
        <symbol id="icon-audio" viewBox="0 0 40 40">
            <title>sound</title>
            <path class="path1" d="M10.624 9.132c-2.244 2.238-12.054 16.23-3.578 24.704 8.472 8.476 22.46-1.336 24.708-3.578 2.242-2.238-0.67-8.79-6.504-14.624-5.838-5.838-12.382-8.752-14.626-6.502zM29.152 28.312c-0.664 0.656-5.79-0.914-10.728-5.856-4.934-4.938-6.512-10.066-5.848-10.726 0.656-0.664 5.788 0.914 10.72 5.852 4.942 4.934 6.516 10.066 5.856 10.73zM30.868 11.964l3.808-3.812c0.782-0.782 0.782-2.046 0-2.828-0.78-0.782-2.046-0.782-2.828 0l-3.808 3.812c-0.782 0.782-0.782 2.048 0 2.828 0.78 0.78 2.046 0.78 2.828 0zM22.248 7.6c0.966 0.536 2.182 0.19 2.72-0.776l2.174-3.852c0.536-0.966 0.19-2.182-0.776-2.72-0.964-0.538-2.182-0.19-2.72 0.776l-2.174 3.852c-0.536 0.968-0.188 2.186 0.776 2.72zM39.744 13.632c-0.534-0.966-1.754-1.314-2.72-0.776l-3.88 2.122c-0.966 0.536-1.314 1.756-0.776 2.72 0.536 0.966 1.754 1.314 2.72 0.776l3.88-2.122c0.966-0.538 1.314-1.754 0.776-2.72z"></path>
        </symbol>
        <symbol id="icon-code" viewBox="0 0 40 40">
            <title>code</title>
            <path class="path1" d="M11.438 29.5c-0.472 0-0.948-0.166-1.328-0.504l-10.12-8.996 10.682-9.496c0.824-0.73 2.088-0.66 2.822 0.166s0.66 2.090-0.166 2.824l-7.318 6.506 6.756 6.004c0.826 0.734 0.9 1.998 0.166 2.824-0.394 0.446-0.944 0.672-1.494 0.672zM29.328 29.496l10.682-9.496-10.12-8.996c-0.826-0.734-2.090-0.66-2.822 0.166-0.734 0.826-0.66 2.090 0.166 2.824l6.756 6.006-7.318 6.504c-0.826 0.734-0.9 1.998-0.166 2.824 0.394 0.446 0.944 0.672 1.494 0.672 0.472 0 0.948-0.166 1.328-0.504zM19.972 32.33l4-24c0.182-1.090-0.554-2.12-1.644-2.302-1.094-0.184-2.122 0.554-2.3 1.644l-4 24c-0.182 1.090 0.554 2.12 1.644 2.302 0.112 0.018 0.22 0.026 0.33 0.026 0.96 0 1.808-0.694 1.97-1.67z"></path>
        </symbol>
        <symbol id="icon-export" viewBox="0 0 40 40">
            <title>export</title>
            <path class="path1" d="M30 30h-26v-18h5.19c0 0 1.378-1.792 4.34-4h-11.53c-1.106 0-2 0.898-2 2v22c0 1.106 0.894 2 2 2h30c1.106 0 2-0.894 2-2v-7.492l-4 3.29v2.202zM26.722 16.1v7.102l13.278-10.402-13.278-9.998v6.262c-16.122 0-16.122 15.936-16.122 15.936 4.564-7.496 7.372-8.9 16.122-8.9z"></path>
        </symbol>
        <symbol id="icon-link" viewBox="0 0 40 40">
            <title>link</title>
            <path class="path1" d="M15.718 29.382l-1.62 1.61c-1.402 1.39-3.686 1.39-5.090 0-0.672-0.668-1.042-1.558-1.042-2.504s0.372-1.832 1.042-2.504l5.96-5.91c1.234-1.226 3.558-3.030 5.252-1.35 0.778 0.772 2.032 0.768 2.806-0.010 0.77-0.778 0.766-2.034-0.012-2.804-2.876-2.856-7.132-2.328-10.838 1.35l-5.96 5.912c-1.43 1.418-2.216 3.308-2.216 5.316 0 2.012 0.788 3.898 2.216 5.316 1.472 1.46 3.404 2.192 5.338 2.192s3.868-0.73 5.338-2.192l1.622-1.61c0.778-0.77 0.782-2.024 0.010-2.8-0.774-0.776-2.028-0.78-2.806-0.012zM33.782 6.414c-3.094-3.068-7.418-3.234-10.278-0.394l-2.018 2.004c-0.778 0.772-0.784 2.026-0.012 2.802 0.772 0.778 2.026 0.782 2.804 0.010l2.020-2.002c1.48-1.472 3.422-0.862 4.692 0.394 0.672 0.67 1.044 1.558 1.044 2.504s-0.372 1.834-1.044 2.502l-6.36 6.308c-2.908 2.882-4.272 1.532-4.854 0.954-0.778-0.772-2.032-0.766-2.802 0.010-0.772 0.778-0.768 2.034 0.010 2.802 1.336 1.324 2.86 1.98 4.456 1.98 1.954 0 4.020-0.984 5.986-2.934l6.36-6.306c1.424-1.42 2.214-3.308 2.214-5.316 0-2.010-0.79-3.898-2.218-5.318z"></path>
        </symbol>
        <symbol id="icon-article" viewBox="0 0 40 40">
            <title>new-message</title>
            <path class="path1" d="M36.348 3.652c-2.204-2.204-4.164-1.554-4.164-1.554l-17.278 17.264-2.906 8.638 8.634-2.908 17.268-17.276c0 0 0.648-1.96-1.554-4.164zM21.21 23.21l-0.942 0.94-2.946 1c-0.208-0.48-0.468-0.954-0.996-1.48-0.528-0.528-1-0.788-1.48-0.996l1-2.946 0.942-0.94c0 0 1.552-0.178 3.074 1.346 1.524 1.522 1.348 3.076 1.348 3.076zM32 34h-26v-26h10l4-4h-14c-2.2 0-4 1.8-4 4v26c0 2.2 1.8 4 4 4h26c2.2 0 4-1.8 4-4v-14l-4 4v10z"></path>
        </symbol>
        <symbol id="icon-soundcloud" viewBox="0 0 40 40">
            <title>soundcloud</title>
            <path class="path1" d="M1.344 26.11l0.656-2.802-0.656-2.894c-0.018-0.086-0.184-0.152-0.382-0.152-0.204 0-0.368 0.066-0.382 0.152l-0.58 2.894 0.578 2.8c0.016 0.090 0.18 0.152 0.382 0.152 0.2 0.002 0.366-0.060 0.384-0.15zM5.446 27.664l0.554-4.328-0.554-6.696c-0.018-0.168-0.228-0.304-0.478-0.304-0.254 0-0.466 0.136-0.476 0.304l-0.492 6.696 0.492 4.328c0.012 0.172 0.222 0.304 0.476 0.304 0.25 0 0.46-0.132 0.478-0.304zM9.536 27.594l0.464-4.254-0.464-8.914c-0.012-0.212-0.258-0.376-0.564-0.376-0.304 0-0.55 0.164-0.562 0.376l-0.41 8.914 0.41 4.258c0.012 0.206 0.258 0.372 0.562 0.372 0.306-0.002 0.552-0.166 0.564-0.376zM13.62 27.532l0.38-4.192-0.38-8.98c-0.010-0.246-0.292-0.442-0.64-0.442-0.352 0-0.632 0.196-0.642 0.442l-0.338 8.98 0.34 4.192c0.008 0.246 0.29 0.442 0.64 0.442 0.348-0.002 0.63-0.192 0.64-0.442zM17.7 27.476l0.3-4.132-0.3-10.298c-0.008-0.284-0.328-0.51-0.716-0.51s-0.708 0.23-0.714 0.512l-0.27 10.292 0.27 4.136c0.006 0.282 0.326 0.512 0.714 0.512s0.708-0.226 0.716-0.512zM20.554 27.992c0.016 0 14.2 0.008 14.29 0.008 2.848 0 5.156-2.234 5.156-4.988s-2.308-4.984-5.156-4.984c-0.706 0-1.378 0.14-1.992 0.386-0.41-4.492-4.306-8.016-9.058-8.016-1.162 0-2.296 0.222-3.296 0.594-0.392 0.148-0.494 0.296-0.498 0.59v15.82c0.004 0.306 0.248 0.558 0.554 0.59z"></path>
        </symbol>
        <symbol id="icon-github" viewBox="0 0 40 40">
            <title>github</title>
            <path class="path1" d="M26.36 22.618c-1.436 0-2.6 1.614-2.6 3.598 0 1.988 1.164 3.602 2.6 3.602s2.6-1.614 2.6-3.602c-0.002-1.984-1.164-3.598-2.6-3.598zM35.412 13.252c0.298-0.73 0.31-4.878-1.27-8.852 0 0-3.622 0.398-9.102 4.16-1.15-0.32-3.096-0.476-5.038-0.476-1.946 0-3.89 0.156-5.040 0.476-5.482-3.762-9.104-4.16-9.104-4.16-1.578 3.974-1.562 8.122-1.268 8.852-1.856 2.016-2.99 4.438-2.99 7.742 0 14.372 11.926 14.602 14.934 14.602 0.684 0 2.036 0.004 3.468 0.004 1.43 0 2.784-0.004 3.464-0.004 3.012 0 14.934-0.23 14.934-14.602 0-3.304-1.132-5.726-2.988-7.742zM20.056 33.83h-0.112c-7.542 0-13.418-0.898-13.418-8.23 0-1.758 0.62-3.386 2.094-4.738 2.454-2.254 6.61-1.062 11.324-1.062 0.020 0 0.040 0 0.058 0 0.020 0 0.036 0 0.054 0 4.714 0 8.872-1.192 11.328 1.062 1.47 1.352 2.090 2.98 2.090 4.738 0 7.332-5.874 8.23-13.418 8.23zM13.642 22.618c-1.436 0-2.6 1.614-2.6 3.598 0 1.988 1.164 3.602 2.6 3.602 1.438 0 2.602-1.614 2.602-3.602 0-1.984-1.164-3.598-2.602-3.598z"></path>
        </symbol>
        <symbol id="icon-instagram" viewBox="0 0 40 40">
            <title>instagram</title>
            <path class="path1" d="M34 2h-28c-2.2 0-4 1.8-4 4v28c0 2.202 1.8 4 4 4h28c2.2 0 4-1.798 4-4v-28c0-2.2-1.8-4-4-4zM19.968 31.046c6.118 0 11.076-4.962 11.076-11.078 0-0.676-0.086-1.328-0.206-1.968h3.162v14.432c0 0.764-0.62 1.38-1.386 1.38h-25.228c-0.766 0-1.386-0.616-1.386-1.38v-14.432h3.098c-0.122 0.64-0.208 1.292-0.208 1.968 0 6.118 4.962 11.078 11.078 11.078zM13.046 19.968c0-3.824 3.1-6.922 6.924-6.922 3.822 0 6.924 3.098 6.924 6.922s-3.102 6.924-6.924 6.924c-3.826 0-6.924-3.1-6.924-6.924zM32.614 12h-3.23c-0.764 0-1.384-0.624-1.384-1.384v-3.234c0-0.764 0.62-1.382 1.382-1.382h3.23c0.768 0 1.388 0.618 1.388 1.382v3.232c0 0.762-0.62 1.386-1.386 1.386z"></path>
        </symbol>
        <symbol id="icon-linkedin" viewBox="0 0 40 40">
            <title>linkedin</title>
            <path class="path1" d="M10 6c0 2.124-1.42 3.952-4.002 3.952-2.43 0-3.998-1.724-3.998-3.848 0-2.18 1.52-4.104 4-4.104s3.952 1.82 4 4zM2 38v-26h8v26h-8z"></path>
            <path class="path2" d="M14 20.888c0-3.090-0.102-5.672-0.204-7.902h7.188l0.356 3.446h0.152c1.012-1.622 3.492-4 7.644-4 5.064 0 8.864 3.39 8.864 10.684v14.884h-8v-13.722c0-3.188-1.214-5.62-4-5.62-2.124 0-3.188 1.72-3.746 3.138-0.204 0.508-0.254 1.216-0.254 1.926v14.278h-8v-17.112z"></path>
        </symbol>
        <symbol id="icon-twitter" viewBox="0 0 40 40">
            <title>twitter</title>
            <path class="path1" d="M34.632 12.492c0.016 0.324 0.022 0.652 0.022 0.976 0 9.98-7.594 21.484-21.48 21.484-4.266 0-8.232-1.25-11.574-3.394 0.592 0.070 1.192 0.106 1.8 0.106 3.54 0 6.794-1.208 9.376-3.23-3.302-0.062-6.092-2.242-7.052-5.242 0.46 0.086 0.934 0.132 1.42 0.132 0.69 0 1.358-0.090 1.99-0.262-3.454-0.696-6.056-3.746-6.056-7.406 0-0.032 0-0.062 0-0.094 1.018 0.566 2.184 0.906 3.42 0.946-2.026-1.356-3.36-3.664-3.36-6.286 0-1.382 0.372-2.68 1.024-3.796 3.722 4.57 9.288 7.574 15.562 7.89-0.128-0.554-0.194-1.128-0.194-1.722 0-4.168 3.378-7.546 7.548-7.546 2.172 0 4.134 0.914 5.512 2.382 1.718-0.34 3.334-0.968 4.794-1.832-0.564 1.762-1.762 3.242-3.32 4.176 1.528-0.184 2.98-0.586 4.336-1.188-1.012 1.516-2.292 2.844-3.768 3.906z"></path>
        </symbol>
    </defs>
</svg>
